<?xml version="1.0" encoding="UTF-8" standalone="no"?>
<svg
   xmlns:dc="http://purl.org/dc/elements/1.1/"
   xmlns:cc="http://creativecommons.org/ns#"
   xmlns:rdf="http://www.w3.org/1999/02/22-rdf-syntax-ns#"
   xmlns:svg="http://www.w3.org/2000/svg"
   xmlns="http://www.w3.org/2000/svg"
   version="1.1"
   id="svg12028"
   viewBox="0 0 20 20"
   height="5.6444445mm"
   width="5.6444445mm">
  <defs
     id="defs12030" />
  <metadata
     id="metadata12033">
    <rdf:RDF>
      <cc:Work
         rdf:about="">
        <dc:format>image/svg+xml</dc:format>
        <dc:type
           rdf:resource="http://purl.org/dc/dcmitype/StillImage" />
        <dc:title></dc:title>
      </cc:Work>
    </rdf:RDF>
  </metadata>
  <g
     transform="translate(-365,-522.3622)"
     id="layer1">
    <path
       id="path10589"
       d="m 374.99,522.3622 c -5.52,0 -9.99,4.47 -9.99,10 0,5.53 4.47,10 9.99,10 5.52,0 10.01,-4.47 10.01,-10 0,-5.53 -4.48,-10 -10.01,-10 z m 0.01,18 c -4.42,0 -8,-3.58 -8,-8 0,-4.42 3.58,-8 8,-8 4.42,0 8,3.58 8,8 0,4.42 -3.58,8 -8,8 z m 1,-10.06 1.06,1.06 1.06,-1.06 1.06,1.06 1.06,-1.06 -2.12,-2.12 z m -4.12,0 1.06,1.06 1.06,-1.06 -2.12,-2.12 -2.12,2.12 1.06,1.06 z m 3.12,7.56 c 2.33,0 4.31,-1.46 5.11,-3.5 l -10.22,0 c 0.8,2.04 2.78,3.5 5.11,3.5 z"
       style="opacity:0.75;fill:#928e9e;fill-opacity:1" />
  </g>
</svg>
