<?xml version="1.0" encoding="UTF-8" standalone="no"?>
<svg
   xmlns:dc="http://purl.org/dc/elements/1.1/"
   xmlns:cc="http://creativecommons.org/ns#"
   xmlns:rdf="http://www.w3.org/1999/02/22-rdf-syntax-ns#"
   xmlns:svg="http://www.w3.org/2000/svg"
   xmlns="http://www.w3.org/2000/svg"
   version="1.1"
   id="svg7883"
   viewBox="0 0 23.999999 24.000001"
   height="6.7733335mm"
   width="6.7733331mm">
  <defs
     id="defs7885" />
  <metadata
     id="metadata7888">
    <rdf:RDF>
      <cc:Work
         rdf:about="">
        <dc:format>image/svg+xml</dc:format>
        <dc:type
           rdf:resource="http://purl.org/dc/dcmitype/StillImage" />
        <dc:title></dc:title>
      </cc:Work>
    </rdf:RDF>
  </metadata>
  <g
     transform="translate(-262.2857,-440.3622)"
     id="layer1">
    <g
       transform="matrix(1.4999999,0,0,1.5,4690.2854,61.818908)"
       id="g10027"
       style="opacity:0.75">
      <rect
         transform="matrix(0,1,-1,0,0,0)"
         style="opacity:0;fill:#ff00ff;fill-opacity:1;fill-rule:nonzero;stroke:none;stroke-width:2;stroke-linecap:butt;stroke-linejoin:miter;stroke-miterlimit:4;stroke-dasharray:none;stroke-dashoffset:0;stroke-opacity:1"
         id="rect10029"
         width="16"
         height="16"
         x="252.3622"
         y="2936" />
      <path
         id="path11891"
         d="m -2938,255.02875 c -0.74,-0.2334 -1.5533,-0.3334 -2.3333,-0.3334 -1.3,0 -2.7,0.2667 -3.6667,1 -0.9667,-0.7333 -2.3667,-1 -3.6667,-1 -1.3,0 -2.7,0.2667 -3.6666,1 l 0,9.7667 c 0,0.1667 0.1666,0.3333 0.3333,0.3333 0.067,0 0.1,-0.033 0.1667,-0.033 0.9,-0.4333 2.2,-0.7333 3.1666,-0.7333 1.3,0 2.7,0.2666 3.6667,1 0.9,-0.5667 2.5333,-1 3.6667,-1 1.1,0 2.2333,0.2 3.1666,0.7 0.067,0.033 0.1,0.033 0.1667,0.033 0.1667,0 0.3333,-0.1667 0.3333,-0.3333 l 0,-9.7334 c -0.4,-0.3 -0.8333,-0.5 -1.3333,-0.6666 z m 0,9 c -0.7333,-0.2334 -1.5333,-0.3334 -2.3333,-0.3334 -1.1334,0 -2.7667,0.4334 -3.6667,1 l 0,-7.6666 c 0.9,-0.5667 2.5333,-1 3.6667,-1 0.8,0 1.6,0.1 2.3333,0.3333 l 0,7.6667 z"
         clip-path="url(#b)"
         style="fill:#928e9e;fill-opacity:1" />
    </g>
  </g>
</svg>
