<?xml version="1.0" encoding="UTF-8" standalone="no"?>
<svg
   xmlns:dc="http://purl.org/dc/elements/1.1/"
   xmlns:cc="http://creativecommons.org/ns#"
   xmlns:rdf="http://www.w3.org/1999/02/22-rdf-syntax-ns#"
   xmlns:svg="http://www.w3.org/2000/svg"
   xmlns="http://www.w3.org/2000/svg"
   version="1.1"
   id="svg8471"
   viewBox="0 0 24.000001 24.000001"
   height="6.7733335mm"
   width="6.7733335mm">
  <defs
     id="defs8473" />
  <metadata
     id="metadata8476">
    <rdf:RDF>
      <cc:Work
         rdf:about="">
        <dc:format>image/svg+xml</dc:format>
        <dc:type
           rdf:resource="http://purl.org/dc/dcmitype/StillImage" />
        <dc:title></dc:title>
      </cc:Work>
    </rdf:RDF>
  </metadata>
  <g
     transform="translate(-179.42857,-368.93363)"
     id="layer1">
    <g
       transform="translate(179.42857,368.93363)"
       style="opacity:0.75;fill:#000000"
       id="g11899">
      <path
         id="path11901"
         d="m 12,5.9 c 1.16,0 2.1,0.94 2.1,2.1 0,1.16 -0.94,2.1 -2.1,2.1 C 10.84,10.1 9.9,9.16 9.9,8 9.9,6.84 10.84,5.9 12,5.9 m 0,9 c 2.97,0 6.1,1.46 6.1,2.1 l 0,1.1 -12.2,0 0,-1.1 c 0,-0.64 3.13,-2.1 6.1,-2.1 M 12,4 C 9.79,4 8,5.79 8,8 c 0,2.21 1.79,4 4,4 2.21,0 4,-1.79 4,-4 0,-2.21 -1.79,-4 -4,-4 z m 0,9 c -2.67,0 -8,1.34 -8,4 l 0,3 16,0 0,-3 c 0,-2.66 -5.33,-4 -8,-4 z"
         style="fill:#928e9e;fill-opacity:1" />
      <path
         id="path11903"
         d="M 0,0 24,0 24,24 0,24 Z"
         style="fill:none" />
    </g>
  </g>
</svg>
