<svg xmlns="http://www.w3.org/2000/svg" viewBox="0 0 24 24">
  <path fill="#928e9e" d="M19.571068 10.585786l-8.131728 8.131728c-1.5627062 1.562706-4.0941484 1.562706-5.6568544 0-1.562706-1.562706-1.562706-4.094148 0-5.656854L14.62132 4.2218254c.975808-.9758074 2.559727-.9758074 3.535534 0 .975808.9758074.975808 2.5597266 0 3.5355339l-7.424621 7.4246217c-.388909.388908-1.0253048.388908-1.4142135 0-.3889087-.388909-.3889087-1.025305 0-1.414214l6.7175145-6.7175145-1.06066-1.0606601-6.7175147 6.7175146c-.9758073.975807-.9758073 2.559726 0 3.535534.9758074.975807 2.5597267.975807 3.5355337 0l7.424621-7.4246215c1.562706-1.562706 1.562706-4.0941483 0-5.6568543-1.562706-1.562706-4.094148-1.562706-5.656854 0L4.7218254 12c-2.1496046 2.149605-2.1496046 5.62857 0 7.778175 2.1496046 2.149604 5.6285696 2.149604 7.7781746 0l8.131728-8.131728-1.06066-1.060661z"/>
</svg>
