<svg viewBox="0 0 24 24" xmlns="http://www.w3.org/2000/svg">
  <g>
    <title>Layer 1</title>
    <g id="layer1">
      <g fill="#000000" id="g10616">
        <path fill="#8777b5" d="m19.57107,10.58579l-8.13173,8.13172c-1.56271,1.56271 -4.09415,1.56271 -5.65685,0c-1.56271,-1.5627 -1.56271,-4.09414 0,-5.65685l8.83883,-8.83883c0.97581,-0.97581 2.55973,-0.97581 3.53553,0c0.97581,0.9758 0.97581,2.55972 0,3.53553l-7.42462,7.42462c-0.38891,0.38891 -1.0253,0.38891 -1.41421,0c-0.38891,-0.38891 -0.38891,-1.0253 0,-1.41421l6.71751,-6.71752l-1.06066,-1.06066l-6.71751,6.71752c-0.97581,0.9758 -0.97581,2.55972 0,3.53553c0.97581,0.97581 2.55973,0.97581 3.53553,0l7.42462,-7.42462c1.56271,-1.56271 1.56271,-4.09415 0,-5.65685c-1.5627,-1.56271 -4.09414,-1.56271 -5.65685,0l-8.83883,8.83883c-2.14961,2.14961 -2.14961,5.62857 0,7.77818c2.1496,2.1496 5.62857,2.1496 7.77817,0l8.13173,-8.13173l-1.06066,-1.06066z" id="path10605"/>
        <path fill="none" d="m0,0l24,0l0,24l-24,0l0,-24z" id="path10607"/>
      </g>
    </g>
  </g>
</svg>