<svg xmlns="http://www.w3.org/2000/svg" viewBox="0 0 24 24">
  <path fill="#8777b5" d="M19.57107 10.58579l-8.13173 8.13172c-1.56271 1.56271-4.09415 1.56271-5.65685 0-1.56271-1.5627-1.56271-4.09414 0-5.65685l8.83883-8.83883c.97581-.97581 2.55973-.97581 3.53553 0 .97581.9758.97581 2.55972 0 3.53553l-7.42462 7.42462c-.38891.38891-1.0253.38891-1.41421 0-.38891-.38891-.38891-1.0253 0-1.41421l6.71751-6.71752-1.06066-1.06066-6.71751 6.71752c-.97581.9758-.97581 2.55972 0 3.53553.97581.97581 2.55973.97581 3.53553 0l7.42462-7.42462c1.56271-1.56271 1.56271-4.09415 0-5.65685-1.5627-1.56271-4.09414-1.56271-5.65685 0L4.72183 12c-2.14961 2.14961-2.14961 5.62857 0 7.77818 2.1496 2.1496 5.62857 2.1496 7.77817 0l8.13173-8.13173-1.06066-1.06066z"/>
  <path fill="none" d="M0 0h24v24H0V0z"/>
</svg>
