<svg xmlns="http://www.w3.org/2000/svg" viewBox="0 0 24 24">
  <path fill="#928e9e" d="M-2938 255.02875c-.74-.2334-1.5533-.3334-2.3333-.3334-1.3 0-2.7.2667-3.6667 1-.9667-.7333-2.3667-1-3.6667-1-1.3 0-2.7.2667-3.6666 1v9.7667c0 .1667.1666.3333.3333.3333.067 0 .1-.033.1667-.033.9-.4333 2.2-.7333 3.1666-.7333 1.3 0 2.7.2666 3.6667 1 .9-.5667 2.5333-1 3.6667-1 1.1 0 2.2333.2 3.1666.7.067.033.1.033.1667.033.1667 0 .3333-.1667.3333-.3333v-9.7334c-.4-.3-.8333-.5-1.3333-.6666zm0 9c-.7333-.2334-1.5333-.3334-2.3333-.3334-1.1334 0-2.7667.4334-3.6667 1v-7.6666c.9-.5667 2.5333-1 3.6667-1 .8 0 1.6.1 2.3333.3333v7.6667z" clip-path="url(#b)" transform="matrix(1.5 0 0 1.5 4428 -378.543)" opacity=".75"/>
</svg>
