<svg viewBox="0 0 20 20" xmlns="http://www.w3.org/2000/svg">
  <g>
    <title>Layer 1</title>
    <g id="layer1">
      <path opacity="0.75" fill="#928e9e" d="m9.99,0.00002c-5.52,0 -9.99,4.47 -9.99,10c0,5.53 4.47,10 9.99,10c5.52,0 10.01,-4.47 10.01,-10c0,-5.53 -4.48,-10 -10.01,-10zm0.01,18c-4.42,0 -8,-3.58 -8,-8c0,-4.42 3.58,-8 8,-8c4.42,0 8,3.58 8,8c0,4.42 -3.58,8 -8,8zm1,-10.06l1.06,1.06l1.06,-1.06l1.06,1.06l1.06,-1.06l-2.12,-2.12l-2.12,2.12zm-4.12,0l1.06,1.06l1.06,-1.06l-2.12,-2.12l-2.12,2.12l1.06,1.06l1.06,-1.06zm3.12,7.56c2.33,0 4.31,-1.46 5.11,-3.5l-10.22,0c0.8,2.04 2.78,3.5 5.11,3.5z" id="path10589"/>
    </g>
  </g>
</svg>
