<svg viewBox="0 0 150 25" xmlns="http://www.w3.org/2000/svg">
  <g>
    <title>Layer 1</title>
    <g id="layer1">
      <path fill="#ded8e5" d="m131.33023,21.56596c-1.2593,-0.121 -1.5021,-0.047 -2.2996,0.6976c-1.6969,1.5852 -2.9758,2.0644 -5.474,2.0514c-3.141,-0.016 -4.5055,-0.774 -6.2961,-3.4961c-0.038,-0.058 -0.6009,0.3506 -1.2512,0.9073c-1.4575,1.2474 -3.3158,2.1426 -4.8939,2.3573c-1.5365,0.209 -2.6036,-0.5694 -3.0864,-2.2517c-0.1882,-0.6557 -0.3731,-1.2355 -0.4109,-1.2885c-0.038,-0.053 -0.5344,0.4191 -1.1035,1.0491c-1.8231,2.0179 -4.8858,3.1225 -6.4045,2.3097c-0.29669,-0.1588 -0.68669,-0.7799 -0.86649,-1.3801l-0.327,-1.0914l-1.1905,1.1905c-2.7295,2.7296 -7.3343,2.3667 -8.9222,-0.7031c-0.5638,-1.0899 -0.6409,-1.5716 -0.5223,-3.2671c0.2147,-3.0709 1.1079,-5.0875 3.1654,-7.1466c1.3639,-1.3651 2.082,-1.8482 3.2724,-2.2017c1.7253,-0.5124 3.3239,-0.5799 4.3645,-0.1843c0.5253,0.1998 0.7942,0.1633 1.04759,-0.142c0.4644,-0.5595 1.0923,-0.5143 2.1947,0.1579c1.5382,0.9378 1.7247,1.7424 0.8277,3.5714c-0.678,1.3823 -0.7624,1.8802 -0.7624,4.4964c0,3.7623 0.2349,4.0319 2.1678,2.4879c2.5475,-2.0349 2.7622,-2.3872 3.2408,-5.3212l0.437,-2.6781l-0.7753,0c-1.016,0 -1.204,-0.3653 -0.8071,-1.5681c0.2889,-0.8751 0.4392,-0.9888 1.3076,-0.9888c0.6818,0 1.0318,-0.1516 1.1472,-0.4971c0.5744,-1.7208 1.844,-4.0493 2.3576,-4.3242c0.8323,-0.4454 1.6457,-0.1237 2.1493,0.85c0.5577,1.0785 0.5342,1.5023 -0.1442,2.6151c-0.3119,0.5115 -0.5676,1.026 -0.5682,1.1432c0,0.1172 0.766,0.213 1.7036,0.213c1.8595,0 1.9391,0.095 1.3927,1.6622c-0.3019,0.8659 -0.3654,0.8947 -1.9719,0.8947c-0.913,0 -1.7178,0.096 -1.7885,0.2131c-0.2905,0.482 -0.7678,6.4026 -0.5918,7.3411c0.2504,1.3348 0.7807,1.4866 2.299,0.6583c1.9217,-1.0485 2.8271,-2.1651 3.1984,-3.9446c0.4074,-1.9522 1.3532,-3.5831 2.8756,-4.9585c1.71,-1.5449 2.8849,-1.9673 5.5242,-1.9861c1.8444,-0.013 2.5038,0.1066 3.4987,0.6353c0.6743,0.3583 1.1753,0.8044 1.1133,0.9913c-0.064,0.1938 -0.9861,0.428 -2.1448,0.5449c-2.1701,0.2189 -3.7965,0.8892 -4.7778,1.9691c-2.1809,2.3999 -2.3264,6.121 -0.288,7.364c0.9867,0.6017 2.7446,0.7171 3.6383,0.2389l0.5762,-0.3084l-0.5814,-0.6188c-1.3627,-1.4506 -1.8425,-4.0203 -1.0403,-5.5717c1.3133,-2.5397 5.1393,-3.0225 6.2916,-0.7941c0.4475,0.8652 0.432,3.192 -0.03,4.6433c-0.1673,0.5245 -0.093,0.579 0.641,0.4712c2.8934,-1.2215 3.988,-2.9864 3.911,-5.9842l-0.6449,-0.9412c-1.174,-1.7132 -0.7049,-3.2597 1.0762,-3.5487c0.8197,-0.1331 1.1771,-0.022 1.9035,0.5887c0.4918,0.4139 1.0537,1.1936 1.2487,1.7327c0.3078,0.8512 0.4794,0.9803 1.3031,0.9803c0.5216,0 1.4497,-0.2557 2.0623,-0.5682c1.6558,-0.8447 2.1718,-0.7433 2.8352,0.5569c0.7325,1.4359 0.733,1.4276 -0.2784,5.0293c-1.4159,5.0426 -1.088,5.4609 1.968,2.5105c1.0521,-1.0156 2.0624,-1.8466 2.2452,-1.8466c0.1828,0 0.3324,0.3368 0.3324,0.7483c0,3.9173 -5.0226,8.0064 -7.609,6.1948c-0.3481,-0.2439 -0.8241,-0.8128 -1.0576,-1.2643c-0.6113,-1.1823 -0.5428,-4.3982 0.14,-6.5768c0.3105,-0.9905 0.5662,-1.8398 0.5682,-1.8875c-1.6801,0.6552 -2.7874,0.291 -4.0458,-0.1265c-0.2218,4.1438 -3.1619,7.7376 -7.0692,7.3896l-0.0008,0zm-34.42369,-1.4003c1.1962,-1.1171 1.5931,-2.2375 1.821,-5.1388c0.1197,-1.5245 0.3041,-3.044 0.4097,-3.3768c0.1736,-0.5468 0.1138,-0.5862 -0.6206,-0.4099c-1.3372,0.3212 -3.2912,1.664 -4.2495,2.9204c-1.5523,2.0353 -1.9382,5.3248 -0.7626,6.5004c0.6369,0.637 2.4766,0.3691 3.402,-0.4953zm33.16819,-3.9296c0.1976,-1.1549 -0.1567,-1.8626 -0.8076,-1.6128c-0.5485,0.2105 -0.6316,2.1746 -0.1139,2.6924c0.448,0.4479 0.7132,0.137 0.9215,-1.0796zm-115.91449,-4.8903c-1.1781,-1.7194 -0.712,-3.2657 1.0719,-3.5551c0.8197,-0.1331 1.1771,-0.023 1.9035,0.5887c0.4918,0.4139 1.0538,1.1936 1.2487,1.7328c0.3078,0.8511 0.4794,0.9802 1.3031,0.9802c0.5217,0 1.4497,-0.2557 2.0623,-0.5682c1.6558,-0.8447 2.1718,-0.7433 2.8352,0.5569c0.7325,1.4359 0.733,1.4276 -0.2784,5.0293c-1.3512,4.8122 -1.0602,5.418 1.4449,3.0077c1.1477,-1.1043 1.482,-1.659 1.8402,-3.054c0.5803,-2.2597 1.5041,-3.775 3.2695,-5.3621c2.0555,-1.8482 5.1581,-2.6678 7.1836,-1.8977c0.5253,0.1997 0.7942,0.1632 1.0476,-0.1421c0.4643,-0.5595 1.0923,-0.5143 2.1948,0.1579c1.5381,0.9378 1.7245,1.7424 0.8275,3.5714c-0.678,1.3823 -0.7624,1.8803 -0.7624,4.4964c0,3.7623 0.2349,4.0319 2.1679,2.4879c2.3778,-1.8993 2.6862,-2.3682 3.091,-4.6998c0.3761,-2.1652 1.487,-4.9915 2.327,-5.9196c0.6765,-0.7476 1.6436,-0.618 2.4386,0.3268l0.6999,0.8317l1.3622,-0.6897c2.1703,-1.0988 4.6364,-0.7826 5.9352,0.761c0.6242,0.7418 0.7278,1.1371 0.7237,2.7616c-0.01,1.0427 -0.2562,2.8546 -0.5634,4.0265c-0.6477,2.4715 -0.7186,3.6976 -0.213,3.6831c0.626,-0.018 1.8344,-1.2323 2.4541,-2.4662c0.6288,-1.2518 1.4302,-1.8846 2.074,-1.6376c0.2083,0.08 0.6796,0.9212 1.0473,1.8695c0.4782,1.2331 0.9223,1.8789 1.5594,2.2676c0.9259,0.5648 2.6533,1.008 2.9137,0.7476c0.2771,-0.277 -0.6881,-1.7561 -1.8934,-2.9014c-3.3592,-3.1923 -3.7643,-6.2574 -1.121,-8.4816c2.3788,-2.0016 6.8927,-1.5376 7.6601,0.7876c0.5925,1.7955 -0.3087,3.7129 -2.2052,4.6915l-0.6505,0.3355l0.8224,1.0494c1.6523,2.1083 1.8978,3.4739 0.9147,5.0863c-1.5427,2.5301 -7.7127,3.1577 -10.2289,1.0404l-0.8106,-0.682l-1.9427,0.997c-2.2978,1.1792 -2.9233,1.2289 -3.9833,0.3171c-0.7277,-0.6259 -0.8027,-0.8772 -0.8998,-3.0177c-0.069,-1.5272 0.073,-3.2138 0.4096,-4.8755c0.5768,-2.8408 0.4341,-3.4367 -0.86,-3.5903c-1.6367,-0.1944 -4.1379,3.7185 -4.1379,6.4733c0,0.6072 0.1484,1.7471 0.3298,2.533c0.3844,1.6653 0.1958,2.0279 -1.5069,2.8966c-2.0234,1.0323 -2.715,0.6409 -2.9914,-1.6928l-0.1716,-1.4482l-1.1291,1.0202c-1.9818,1.7905 -4.4991,2.5628 -5.9033,1.8113c-0.2967,-0.1588 -0.6866,-0.7799 -0.8665,-1.3801l-0.3269,-1.0914l-1.1905,1.1905c-1.231,1.2309 -2.854,1.8603 -4.7645,1.8476c-1.3725,-0.01 -3.2644,-0.9684 -3.8682,-1.9612l-0.5254,-0.864l-0.8299,0.8833c-0.4564,0.4859 -1.3413,1.1201 -1.9662,1.4095c-2.0819,0.9639 -3.653,0.56 -4.5471,-1.1691c-0.6114,-1.1822 -0.543,-4.3982 0.1399,-6.5768c0.3105,-0.9905 0.5662,-1.8398 0.5682,-1.8875c0.01,-0.048 -0.5959,-0.048 -1.3286,0c-3.422,0.3958 -4.2746,-1.1055 -5.4049,-2.643zm21.7071,8.5058c1.196,-1.1171 1.5931,-2.2375 1.8209,-5.1388c0.1198,-1.5244 0.3042,-3.044 0.4098,-3.3768c0.1736,-0.5467 0.1138,-0.5862 -0.6206,-0.4099c-1.3373,0.3212 -3.2912,1.664 -4.2495,2.9204c-1.5524,2.0353 -1.9383,5.3248 -0.7626,6.5005c0.6369,0.6369 2.4765,0.3691 3.402,-0.4954zm34.7235,-6.3069c0.3253,-0.5262 0.5914,-1.1609 0.5914,-1.4105c0,-0.6661 -0.9185,-1.0521 -1.8745,-0.7877c-0.6351,0.1756 -0.8076,0.3751 -0.7514,0.8691c0.064,0.5633 1.0767,2.286 1.3437,2.286c0.055,0 0.3657,-0.4306 0.6908,-0.9569zm-65.8174,10.4352c-1.2169,-2.0452 0.8666,-13.5882 3.6269,-20.0934c0.2086,-0.4917 0.1177,-0.515 -1.2659,-0.3247c-0.8199,0.1127 -2.4691,0.509 -3.6651,0.8805c-3.5607,1.1063 -4.2848,0.799 -2.6106,-1.1077c1.0561,-1.2029 3.6642,-2.5946 5.6349,-3.0069c2.234,-0.4674 13.3862,-0.4221 13.5693,0.055c0.1739,0.453 -0.5503,2.2537 -1.0848,2.6973c-0.2317,0.1922 -1.8098,0.3558 -3.8927,0.4035l-3.5031,0.08l-0.7987,4.6876c-1.0523,6.1762 -1.6762,11.034 -1.6762,13.0504c0,2.0678 -0.5259,2.6195 -2.6666,2.797c-0.8368,0.069 -1.5872,0.016 -1.6674,-0.119l0,0.0004zm75.2486,-0.2456c-1.5665,-0.4885 -3.0123,-1.872 -3.6205,-3.4649c-0.3765,-0.9858 -0.4373,-1.8352 -0.3065,-4.2801c0.2013,-3.7602 0.76,-5.9952 2.3249,-9.3003c2.1093,-4.455 4.5071,-6.5086 7.6192,-6.5253c1.4816,-0.01 1.7456,0.081 2.355,0.7882c0.505,0.5866 0.6861,1.1334 0.6861,2.071c0,2.1402 -1.226,4.0215 -6.3698,9.7741c-1.1876,1.3281 -2.236,2.7041 -2.3299,3.0577c-0.3498,1.3179 0.159,3.1268 1.103,3.9211c0.7699,0.6478 1.0687,0.7292 2.1393,0.5825c1.4693,-0.2014 2.6085,-0.9321 4.225,-2.7098c1.0151,-1.1163 1.2111,-1.228 1.3851,-0.7896c0.6183,1.5583 -0.8636,4.5849 -2.8999,5.9224c-2.1533,1.4143 -3.958,1.6868 -6.311,0.953zm4.5382,-17.1766c1.3575,-1.6893 1.633,-3.4199 0.5443,-3.4199c-1.0952,0 -3.0264,3.1222 -3.816,6.1693c-0.2459,0.9489 -0.447,1.8095 -0.447,1.9124c0,0.1029 0.6486,-0.6699 1.4414,-1.7173c0.7929,-1.0475 1.8176,-2.3725 2.2773,-2.9445z" id="path8582"/>
    </g>
  </g>
</svg>
