<svg xmlns="http://www.w3.org/2000/svg" viewBox="0 0 150 25">
  <path fill="#ded8e5" d="M131.33023 21.56596c-1.2593-.121-1.5021-.047-2.2996.6976-1.6969 1.5852-2.9758 2.0644-5.474 2.0514-3.141-.016-4.5055-.774-6.2961-3.4961-.038-.058-.6009.3506-1.2512.9073-1.4575 1.2474-3.3158 2.1426-4.8939 2.3573-1.5365.209-2.6036-.5694-3.0864-2.2517-.1882-.6557-.3731-1.2355-.4109-1.2885-.038-.053-.5344.4191-1.1035 1.0491-1.8231 2.0179-4.8858 3.1225-6.4045 2.3097-.29669-.1588-.68669-.7799-.86649-1.3801l-.327-1.0914-1.1905 1.1905c-2.7295 2.7296-7.3343 2.3667-8.9222-.7031-.5638-1.0899-.6409-1.5716-.5223-3.2671.2147-3.0709 1.1079-5.0875 3.1654-7.1466 1.3639-1.3651 2.082-1.8482 3.2724-2.2017 1.7253-.5124 3.3239-.5799 4.3645-.1843.5253.1998.7942.1633 1.04759-.142.4644-.5595 1.0923-.5143 2.1947.1579 1.5382.9378 1.7247 1.7424.8277 3.5714-.678 1.3823-.7624 1.8802-.7624 4.4964 0 3.7623.2349 4.0319 2.1678 2.4879 2.5475-2.0349 2.7622-2.3872 3.2408-5.3212l.437-2.6781h-.7753c-1.016 0-1.204-.3653-.8071-1.5681.2889-.8751.4392-.9888 1.3076-.9888.6818 0 1.0318-.1516 1.1472-.4971.5744-1.7208 1.844-4.0493 2.3576-4.3242.8323-.4454 1.6457-.1237 2.1493.85.5577 1.0785.5342 1.5023-.1442 2.6151-.3119.5115-.5676 1.026-.5682 1.1432 0 .1172.766.213 1.7036.213 1.8595 0 1.9391.095 1.3927 1.6622-.3019.8659-.3654.8947-1.9719.8947-.913 0-1.7178.096-1.7885.2131-.2905.482-.7678 6.4026-.5918 7.3411.2504 1.3348.7807 1.4866 2.299.6583 1.9217-1.0485 2.8271-2.1651 3.1984-3.9446.4074-1.9522 1.3532-3.5831 2.8756-4.9585 1.71-1.5449 2.8849-1.9673 5.5242-1.9861 1.8444-.013 2.5038.1066 3.4987.6353.6743.3583 1.1753.8044 1.1133.9913-.064.1938-.9861.428-2.1448.5449-2.1701.2189-3.7965.8892-4.7778 1.9691-2.1809 2.3999-2.3264 6.121-.288 7.364.9867.6017 2.7446.7171 3.6383.2389l.5762-.3084-.5814-.6188c-1.3627-1.4506-1.8425-4.0203-1.0403-5.5717 1.3133-2.5397 5.1393-3.0225 6.2916-.7941.4475.8652.432 3.192-.03 4.6433-.1673.5245-.093.579.641.4712 2.8934-1.2215 3.988-2.9864 3.911-5.9842l-.6449-.9412c-1.174-1.7132-.7049-3.2597 1.0762-3.5487.8197-.1331 1.1771-.022 1.9035.5887.4918.4139 1.0537 1.1936 1.2487 1.7327.3078.8512.4794.9803 1.3031.9803.5216 0 1.4497-.2557 2.0623-.5682 1.6558-.8447 2.1718-.7433 2.8352.5569.7325 1.4359.733 1.4276-.2784 5.0293-1.4159 5.0426-1.088 5.4609 1.968 2.5105 1.0521-1.0156 2.0624-1.8466 2.2452-1.8466.1828 0 .3324.3368.3324.7483 0 3.9173-5.0226 8.0064-7.609 6.1948-.3481-.2439-.8241-.8128-1.0576-1.2643-.6113-1.1823-.5428-4.3982.14-6.5768.3105-.9905.5662-1.8398.5682-1.8875-1.6801.6552-2.7874.291-4.0458-.1265-.2218 4.1438-3.1619 7.7376-7.0692 7.3896h-.0008zm-34.42369-1.4003c1.1962-1.1171 1.5931-2.2375 1.821-5.1388.1197-1.5245.3041-3.044.4097-3.3768.1736-.5468.1138-.5862-.6206-.4099-1.3372.3212-3.2912 1.664-4.2495 2.9204-1.5523 2.0353-1.9382 5.3248-.7626 6.5004.6369.637 2.4766.3691 3.402-.4953zm33.16819-3.9296c.1976-1.1549-.1567-1.8626-.8076-1.6128-.5485.2105-.6316 2.1746-.1139 2.6924.448.4479.7132.137.9215-1.0796zm-115.91449-4.8903c-1.1781-1.7194-.712-3.2657 1.0719-3.5551.8197-.1331 1.1771-.023 1.9035.5887.4918.4139 1.0538 1.1936 1.2487 1.7328.3078.8511.4794.9802 1.3031.9802.5217 0 1.4497-.2557 2.0623-.5682 1.6558-.8447 2.1718-.7433 2.8352.5569.7325 1.4359.733 1.4276-.2784 5.0293-1.3512 4.8122-1.0602 5.418 1.4449 3.0077 1.1477-1.1043 1.482-1.659 1.8402-3.054.5803-2.2597 1.5041-3.775 3.2695-5.3621 2.0555-1.8482 5.1581-2.6678 7.1836-1.8977.5253.1997.7942.1632 1.0476-.1421.4643-.5595 1.0923-.5143 2.1948.1579 1.5381.9378 1.7245 1.7424.8275 3.5714-.678 1.3823-.7624 1.8803-.7624 4.4964 0 3.7623.2349 4.0319 2.1679 2.4879 2.3778-1.8993 2.6862-2.3682 3.091-4.6998.3761-2.1652 1.487-4.9915 2.327-5.9196.6765-.7476 1.6436-.618 2.4386.3268l.6999.8317 1.3622-.6897c2.1703-1.0988 4.6364-.7826 5.9352.761.6242.7418.7278 1.1371.7237 2.7616-.01 1.0427-.2562 2.8546-.5634 4.0265-.6477 2.4715-.7186 3.6976-.213 3.6831.626-.018 1.8344-1.2323 2.4541-2.4662.6288-1.2518 1.4302-1.8846 2.074-1.6376.2083.08.6796.9212 1.0473 1.8695.4782 1.2331.9223 1.8789 1.5594 2.2676.9259.5648 2.6533 1.008 2.9137.7476.2771-.277-.6881-1.7561-1.8934-2.9014-3.3592-3.1923-3.7643-6.2574-1.121-8.4816 2.3788-2.0016 6.8927-1.5376 7.6601.7876.5925 1.7955-.3087 3.7129-2.2052 4.6915l-.6505.3355.8224 1.0494c1.6523 2.1083 1.8978 3.4739.9147 5.0863-1.5427 2.5301-7.7127 3.1577-10.2289 1.0404l-.8106-.682-1.9427.997c-2.2978 1.1792-2.9233 1.2289-3.9833.3171-.7277-.6259-.8027-.8772-.8998-3.0177-.069-1.5272.073-3.2138.4096-4.8755.5768-2.8408.4341-3.4367-.86-3.5903-1.6367-.1944-4.1379 3.7185-4.1379 6.4733 0 .6072.1484 1.7471.3298 2.533.3844 1.6653.1958 2.0279-1.5069 2.8966-2.0234 1.0323-2.715.6409-2.9914-1.6928l-.1716-1.4482-1.1291 1.0202c-1.9818 1.7905-4.4991 2.5628-5.9033 1.8113-.2967-.1588-.6866-.7799-.8665-1.3801l-.3269-1.0914-1.1905 1.1905c-1.231 1.2309-2.854 1.8603-4.7645 1.8476-1.3725-.01-3.2644-.9684-3.8682-1.9612l-.5254-.864-.8299.8833c-.4564.4859-1.3413 1.1201-1.9662 1.4095-2.0819.9639-3.653.56-4.5471-1.1691-.6114-1.1822-.543-4.3982.1399-6.5768.3105-.9905.5662-1.8398.5682-1.8875.01-.048-.5959-.048-1.3286 0-3.422.3958-4.2746-1.1055-5.4049-2.643zm21.7071 8.5058c1.196-1.1171 1.5931-2.2375 1.8209-5.1388.1198-1.5244.3042-3.044.4098-3.3768.1736-.5467.1138-.5862-.6206-.4099-1.3373.3212-3.2912 1.664-4.2495 2.9204-1.5524 2.0353-1.9383 5.3248-.7626 6.5005.6369.6369 2.4765.3691 3.402-.4954zm34.7235-6.3069c.3253-.5262.5914-1.1609.5914-1.4105 0-.6661-.9185-1.0521-1.8745-.7877-.6351.1756-.8076.3751-.7514.8691.064.5633 1.0767 2.286 1.3437 2.286.055 0 .3657-.4306.6908-.9569zm-65.8174 10.4352c-1.2169-2.0452.8666-13.5882 3.6269-20.0934.2086-.4917.1177-.515-1.2659-.3247-.8199.1127-2.4691.509-3.6651.8805-3.5607 1.1063-4.2848.799-2.6106-1.1077 1.0561-1.2029 3.6642-2.5946 5.6349-3.0069 2.234-.4674 13.3862-.4221 13.5693.055.1739.453-.5503 2.2537-1.0848 2.6973-.2317.1922-1.8098.3558-3.8927.4035l-3.5031.08-.7987 4.6876c-1.0523 6.1762-1.6762 11.034-1.6762 13.0504 0 2.0678-.5259 2.6195-2.6666 2.797-.8368.069-1.5872.016-1.6674-.119v.0004zm75.2486-.2456c-1.5665-.4885-3.0123-1.872-3.6205-3.4649-.3765-.9858-.4373-1.8352-.3065-4.2801.2013-3.7602.76-5.9952 2.3249-9.3003 2.1093-4.455 4.5071-6.5086 7.6192-6.5253 1.4816-.01 1.7456.081 2.355.7882.505.5866.6861 1.1334.6861 2.071 0 2.1402-1.226 4.0215-6.3698 9.7741-1.1876 1.3281-2.236 2.7041-2.3299 3.0577-.3498 1.3179.159 3.1268 1.103 3.9211.7699.6478 1.0687.7292 2.1393.5825 1.4693-.2014 2.6085-.9321 4.225-2.7098 1.0151-1.1163 1.2111-1.228 1.3851-.7896.6183 1.5583-.8636 4.5849-2.8999 5.9224-2.1533 1.4143-3.958 1.6868-6.311.953zm4.5382-17.1766c1.3575-1.6893 1.633-3.4199.5443-3.4199-1.0952 0-3.0264 3.1222-3.816 6.1693-.2459.9489-.447 1.8095-.447 1.9124 0 .1029.6486-.6699 1.4414-1.7173.7929-1.0475 1.8176-2.3725 2.2773-2.9445z"/>
</svg>
