<svg xmlns="http://www.w3.org/2000/svg" viewBox="0 0 24 24">
  <path fill="#928e9e" d="M10.999999 17.000001H13v-6h-2.000001v6zM12 2.0000002c-5.5200005 0-10.0000008 4.4800003-10.0000008 10.0000008 0 5.52 4.4800003 10.000001 10.0000008 10.000001 5.52 0 10-4.480001 10-10.000001 0-5.5200005-4.48-10.0000008-10-10.0000008zm0 18.0000008c-4.4100005 0-8.0000007-3.59-8.0000007-8 0-4.4100005 3.5900002-8.0000008 8.0000007-8.0000008 4.41 0 8.000001 3.5900003 8.000001 8.0000008 0 4.41-3.590001 8-8.000001 8zM10.999999 9.0000007H13V7.0000005h-2.000001v2.0000002z"/>
</svg>
