<?xml version="1.0" encoding="UTF-8" standalone="no"?>
<svg
   xmlns:dc="http://purl.org/dc/elements/1.1/"
   xmlns:cc="http://creativecommons.org/ns#"
   xmlns:rdf="http://www.w3.org/1999/02/22-rdf-syntax-ns#"
   xmlns:svg="http://www.w3.org/2000/svg"
   xmlns="http://www.w3.org/2000/svg"
   version="1.1"
   id="svg9059"
   viewBox="0 0 24.000001 24.000001"
   height="6.7733335mm"
   width="6.7733335mm">
  <defs
     id="defs9061" />
  <metadata
     id="metadata9064">
    <rdf:RDF>
      <cc:Work
         rdf:about="">
        <dc:format>image/svg+xml</dc:format>
        <dc:type
           rdf:resource="http://purl.org/dc/dcmitype/StillImage" />
        <dc:title></dc:title>
      </cc:Work>
    </rdf:RDF>
  </metadata>
  <g
     transform="translate(-219.42857,-177.50506)"
     id="layer1">
    <g
       transform="translate(219.42857,177.50506)"
       id="g11905"
       style="opacity:1;fill:#000000">
      <path
         style="fill:none"
         d="M 0,0 24,0 24,24 0,24 Z"
         id="path11907" />
      <path
         style="fill:#8777b5;fill-opacity:1"
         d="m 11,17 2,0 0,-6 -2,0 0,6 z M 12,2 C 6.48,2 2,6.48 2,12 2,17.52 6.48,22 12,22 17.52,22 22,17.52 22,12 22,6.48 17.52,2 12,2 Z m 0,18 C 7.59,20 4,16.41 4,12 4,7.59 7.59,4 12,4 c 4.41,0 8,3.59 8,8 0,4.41 -3.59,8 -8,8 z m -1,-11 2,0 0,-2 -2,0 0,2 z"
         id="path11909" />
    </g>
  </g>
</svg>
