<svg xmlns="http://www.w3.org/2000/svg" viewBox="0 0 24 24">
  <path fill="#928e9e" d="M21 3.9998253c-1.11-.3501-2.32995-.5001-3.49995-.5001-1.95 0-4.05.40005-5.50005 1.5-1.45005-1.09995-3.5500504-1.5-5.5000505-1.5-1.95 0-4.05.40005-5.4999 1.5V19.649775c0 .25005.2499.49995.49995.49995.1005 0 .15-.0495.25005-.0495 1.35-.64995 3.3-1.09995 4.7499-1.09995 1.9500001 0 4.0500005.3999 5.5000505 1.5 1.35-.85005 3.79995-1.5 5.50005-1.5 1.65 0 3.34995.3 4.7499 1.05.1005.0495.15.0495.25005.0495.25005 0 .49995-.25005.49995-.49995V4.9997253c-.6-.45-1.24995-.75-1.99995-.9999zm0 13.4999997c-1.09995-.3501-2.29995-.5001-3.49995-.5001-1.7001 0-4.15005.6501-5.50005 1.5V6.9998253c1.35-.85005 3.79995-1.5 5.50005-1.5 1.2 0 2.4.15 3.49995.49995V17.499825z"/>
</svg>
