<?xml version="1.0" encoding="UTF-8" standalone="no"?>
<svg
   xmlns:dc="http://purl.org/dc/elements/1.1/"
   xmlns:cc="http://creativecommons.org/ns#"
   xmlns:rdf="http://www.w3.org/1999/02/22-rdf-syntax-ns#"
   xmlns:svg="http://www.w3.org/2000/svg"
   xmlns="http://www.w3.org/2000/svg"
   version="1.1"
   id="svg11442"
   viewBox="0 0 24.000001 24.000001"
   height="6.7733335mm"
   width="6.7733335mm">
  <defs
     id="defs11444" />
  <metadata
     id="metadata11447">
    <rdf:RDF>
      <cc:Work
         rdf:about="">
        <dc:format>image/svg+xml</dc:format>
        <dc:type
           rdf:resource="http://purl.org/dc/dcmitype/StillImage" />
        <dc:title></dc:title>
      </cc:Work>
    </rdf:RDF>
  </metadata>
  <g
     transform="translate(-233.71429,-546.07649)"
     id="layer1">
    <g
       transform="translate(233.71429,546.07649)"
       style="opacity:1;fill:#000000"
       id="g10616">
      <path
         id="path10605"
         d="m 19.571068,10.585786 -8.131728,8.131728 c -1.5627062,1.562706 -4.0941484,1.562706 -5.6568544,0 -1.562706,-1.562706 -1.562706,-4.094148 0,-5.656854 L 14.62132,4.2218254 c 0.975808,-0.9758074 2.559727,-0.9758074 3.535534,0 0.975808,0.9758074 0.975808,2.5597266 0,3.5355339 l -7.424621,7.4246217 c -0.388909,0.388908 -1.0253048,0.388908 -1.4142135,0 -0.3889087,-0.388909 -0.3889087,-1.025305 0,-1.414214 L 16.035534,7.0502525 14.974874,5.9895924 8.2573593,12.707107 c -0.9758073,0.975807 -0.9758073,2.559726 0,3.535534 0.9758074,0.975807 2.5597267,0.975807 3.5355337,0 l 7.424621,-7.4246215 c 1.562706,-1.562706 1.562706,-4.0941483 0,-5.6568543 -1.562706,-1.562706 -4.094148,-1.562706 -5.656854,0 L 4.7218254,12 c -2.1496046,2.149605 -2.1496046,5.62857 0,7.778175 2.1496046,2.149604 5.6285696,2.149604 7.7781746,0 l 8.131728,-8.131728 -1.06066,-1.060661 z"
         style="fill:#8777b5;fill-opacity:1" />
      <path
         id="path10607"
         d="M 0,0 24,0 24,24 0,24 Z"
         style="fill:none" />
    </g>
  </g>
</svg>
