<?xml version="1.0" encoding="UTF-8" standalone="no"?>
<svg
   xmlns:dc="http://purl.org/dc/elements/1.1/"
   xmlns:cc="http://creativecommons.org/ns#"
   xmlns:rdf="http://www.w3.org/1999/02/22-rdf-syntax-ns#"
   xmlns:svg="http://www.w3.org/2000/svg"
   xmlns="http://www.w3.org/2000/svg"
   version="1.1"
   id="svg6101"
   viewBox="0 0 15.999999 16.000898"
   height="4.5158091mm"
   width="4.5155554mm">
  <defs
     id="defs6103" />
  <metadata
     id="metadata6106">
    <rdf:RDF>
      <cc:Work
         rdf:about="">
        <dc:format>image/svg+xml</dc:format>
        <dc:type
           rdf:resource="http://purl.org/dc/dcmitype/StillImage" />
        <dc:title></dc:title>
      </cc:Work>
    </rdf:RDF>
  </metadata>
  <g
     transform="translate(-557.7143,-755.79033)"
     id="layer1">
    <g
       style="opacity:0.75"
       transform="translate(3509.7143,503.42903)"
       id="g11465">
      <rect
         transform="matrix(0,1,-1,0,0,0)"
         style="opacity:0;fill:#ff00ff;fill-opacity:1;fill-rule:nonzero;stroke:none;stroke-width:2;stroke-linecap:butt;stroke-linejoin:miter;stroke-miterlimit:4;stroke-dasharray:none;stroke-dashoffset:0;stroke-opacity:1"
         id="rect11467"
         width="16"
         height="16"
         x="252.3622"
         y="2936" />
      <path
         id="path11469"
         transform="translate(48,-2336)"
         d="m -2996,2588.3613 c -1,0 -2,1 -2,2 l 0,14 6.0312,-4 5.9688,4 0,-14 c 0,-1 -1.0001,-2.0001 -2.0234,-2 l -7.9766,0 z m -0.016,1 8.0136,0 c 0.5012,0 1.002,0.5 1.002,1 l 0,12 -4.9688,-3.5 -5.0312,3.5 0,-12 c 0,-0.5 0.5,-1 0.9844,-1 z"
         style="opacity:1;fill:#928e9e;fill-opacity:1;fill-rule:nonzero;stroke:none;stroke-width:2;stroke-linecap:butt;stroke-linejoin:miter;stroke-miterlimit:4;stroke-dasharray:none;stroke-dashoffset:0;stroke-opacity:1" />
    </g>
  </g>
</svg>
