<?xml version="1.0" encoding="UTF-8" standalone="no"?>
<svg
   xmlns:dc="http://purl.org/dc/elements/1.1/"
   xmlns:cc="http://creativecommons.org/ns#"
   xmlns:rdf="http://www.w3.org/1999/02/22-rdf-syntax-ns#"
   xmlns:svg="http://www.w3.org/2000/svg"
   xmlns="http://www.w3.org/2000/svg"
   version="1.1"
   id="svg9656"
   viewBox="0 0 23.999999 24.000001"
   height="6.7733335mm"
   width="6.7733331mm">
  <defs
     id="defs9658" />
  <metadata
     id="metadata9661">
    <rdf:RDF>
      <cc:Work
         rdf:about="">
        <dc:format>image/svg+xml</dc:format>
        <dc:type
           rdf:resource="http://purl.org/dc/dcmitype/StillImage" />
        <dc:title></dc:title>
      </cc:Work>
    </rdf:RDF>
  </metadata>
  <g
     transform="translate(-142.2857,-371.79078)"
     id="layer1">
    <g
       style="opacity:1"
       id="g11893"
       transform="matrix(1.4999999,0,0,1.5,4570.2854,-6.7525207)">
      <rect
         y="2936"
         x="252.3622"
         height="16"
         width="16"
         id="rect11895"
         style="opacity:0;fill:#ff00ff;fill-opacity:1;fill-rule:nonzero;stroke:none;stroke-width:2;stroke-linecap:butt;stroke-linejoin:miter;stroke-miterlimit:4;stroke-dasharray:none;stroke-dashoffset:0;stroke-opacity:1"
         transform="matrix(0,1,-1,0,0,0)" />
      <path
         id="path11897"
         transform="matrix(0.66666667,0,0,0.66666667,-1645.3333,-3713.2125)"
         d="m -1955.75,5952.3613 c -1.2465,0 -2.25,1.0035 -2.25,2.25 l 0,9.5 c 0,1.2465 1.0033,2.25 2.25,2.25 l 7.75,0 4,4 2,0.031 0,-4.0313 1.75,0 c 1.2465,0 2.25,-1.0035 2.25,-2.25 l 0,-9.5 c 0,-1.2465 -1.0035,-2.25 -2.25,-2.25 l -15.5,0 z m -0.25,2 16,0 0,10 -4.0312,0 0.031,3 -3,-3 -9,0 0,-10 z"
         style="opacity:1;fill:#8777b5;fill-opacity:1;fill-rule:nonzero;stroke:none;stroke-width:2;stroke-linecap:butt;stroke-linejoin:miter;stroke-miterlimit:4;stroke-dasharray:none;stroke-dashoffset:0;stroke-opacity:1" />
    </g>
  </g>
</svg>
